<?xml version="1.0" encoding="UTF-8" standalone="no"?>
<!DOCTYPE svg PUBLIC "-//W3C//DTD SVG 1.1//EN" "http://www.w3.org/Graphics/SVG/1.1/DTD/svg11.dtd">
<svg width="100%" height="100%" viewBox="0 0 237 237" version="1.1" xmlns="http://www.w3.org/2000/svg" xmlns:xlink="http://www.w3.org/1999/xlink" xml:space="preserve" style="fill-rule:evenodd;clip-rule:evenodd;stroke-linecap:round;stroke-linejoin:round;stroke-miterlimit:1.5;">
    <path d="M66.612,170.202L90.489,149.191L114.947,170.713L114.947,37.669L197.216,37.669C204.222,37.669 209.909,43.357 209.909,50.362L209.909,211.488C209.909,218.494 204.222,224.181 197.216,224.181L45.901,224.181C38.896,224.181 33.208,218.494 33.208,211.488L33.208,50.362C33.208,43.357 38.896,37.669 45.901,37.669L66.612,37.669L66.612,170.202Z" style="fill:white;stroke:rgb(234,234,234);stroke-width:1px;"/>
    <g transform="matrix(0.94312,0,0,1,6.91423,0)">
        <path d="M195.979,12.209C205.512,12.209 213.466,19.02 215.237,28.037L27.88,28.037C29.651,19.02 37.606,12.209 47.139,12.209L195.979,12.209Z" style="fill:white;stroke:rgb(234,234,234);stroke-width:1.03px;"/>
    </g>
</svg>
