<?xml version="1.0" encoding="UTF-8" standalone="no"?>
<!DOCTYPE svg PUBLIC "-//W3C//DTD SVG 1.1//EN" "http://www.w3.org/Graphics/SVG/1.1/DTD/svg11.dtd">
<svg width="100%" height="100%" viewBox="0 0 237 237" version="1.1" xmlns="http://www.w3.org/2000/svg" xmlns:xlink="http://www.w3.org/1999/xlink" xml:space="preserve" style="fill-rule:evenodd;clip-rule:evenodd;stroke-linecap:round;stroke-linejoin:round;stroke-miterlimit:1.5;">
    <path d="M64.059,52.16C64.059,52.16 34.889,70.94 41.021,108.258C47.153,145.577 53.979,148.489 53.979,148.489C53.979,148.489 61.888,157.393 60.313,182.007C59.585,193.385 59.146,200.918 58.884,205.729C58.689,210.098 61.614,213.994 65.864,215.026C80.738,218.639 114.36,226.804 130.467,230.715C132.823,231.287 135.311,230.891 137.374,229.615C139.436,228.339 140.901,226.289 141.44,223.925C142.498,219.284 143.773,213.699 144.76,209.369C145.676,205.354 149.47,202.674 153.56,203.151C158.845,203.769 165.109,204.5 165.109,204.5C165.109,204.5 184.57,209.469 187.099,194.833C189.628,180.196 193.103,181.78 193.103,181.78C193.103,181.78 196.633,177.088 192.915,172.422C192.915,172.422 192.044,169.615 195.106,166.847C198.168,164.079 197.463,157.418 195.366,154.445C193.268,151.472 192.823,150.146 198.779,150.375C204.736,150.603 214.399,146.891 204.476,132.158C194.553,117.425 194.782,118.11 194.782,118.11C194.782,118.11 201.893,74.174 171.13,51.512C171.13,51.512 157.959,53.136 163.966,62.963C169.974,72.791 175.328,78.124 170.994,89.814C166.66,101.504 159.591,118.514 108.624,118.11C108.624,118.11 56.783,113.589 63.766,74.967C63.766,74.967 68.514,67.024 71.265,63.761C74.015,60.498 70.687,47.823 64.059,52.16Z" style="fill:white;stroke:rgb(239,239,239);stroke-width:1px;"/>
    <path d="M88.853,77.91C88.363,77.504 88.055,76.92 87.999,76.286C87.942,75.653 88.142,75.023 88.552,74.537C91.562,70.89 96.832,61.927 87.947,51.266C76.296,37.287 73.235,33.993 73.235,33.993C73.235,33.993 69.064,38.392 66.202,41.412C65.762,41.875 65.086,42.028 64.491,41.798C63.895,41.568 63.497,41.001 63.483,40.362C63.367,35.093 63.16,25.65 63.042,20.277C63.019,19.227 63.428,18.214 64.172,17.473C64.917,16.732 65.932,16.328 66.982,16.357C71.635,16.481 79.31,16.687 84.47,16.825C85.438,16.851 86.304,17.438 86.687,18.328C87.07,19.218 86.9,20.25 86.253,20.971C83.912,23.579 81.29,26.5 81.29,26.5C81.29,26.5 109.033,50.583 103.996,65.61C101.181,74.007 99.057,78.74 97.729,81.282C97.277,81.924 96.577,82.348 95.798,82.452C95.02,82.556 94.233,82.331 93.628,81.83C92.113,80.607 90.238,79.055 88.853,77.91Z" style="fill:white;stroke:rgb(239,239,239);stroke-width:1px;"/>
    <g transform="matrix(-1.02496,0,0,1,239.587,-7.10543e-15)">
        <path d="M88.62,77.717C88.192,77.363 87.924,76.844 87.879,76.281C87.834,75.719 88.016,75.162 88.383,74.741C91.355,71.232 97.002,62.131 87.947,51.266C76.296,37.287 73.235,33.993 73.235,33.993C73.235,33.993 69.191,38.259 66.334,41.272C65.867,41.765 65.156,41.922 64.532,41.671C63.908,41.42 63.492,40.809 63.477,40.122C63.354,34.489 63.134,24.437 63.022,19.362C63.005,18.551 63.312,17.767 63.873,17.194C64.434,16.621 65.2,16.309 65.992,16.33C70.739,16.457 79.941,16.704 85.424,16.851C86.212,16.872 86.915,17.363 87.222,18.107C87.53,18.851 87.384,19.711 86.85,20.306C84.384,23.053 81.29,26.5 81.29,26.5C81.29,26.5 109.033,50.583 103.996,65.61C100.929,74.76 98.681,79.559 97.392,81.914C97.029,82.409 96.484,82.732 95.884,82.809C95.284,82.885 94.68,82.709 94.209,82.32C92.55,80.968 90.202,79.025 88.62,77.717Z" style="fill:white;stroke:rgb(239,239,239);stroke-width:0.99px;"/>
    </g>
    <path d="M115.514,83.929C113.901,83.929 112.593,82.622 112.593,81.008C112.593,69.387 112.593,27.062 112.593,27.062C112.593,27.062 107.351,27.062 103.514,27.062C102.85,27.062 102.251,26.662 101.997,26.049C101.743,25.435 101.883,24.729 102.353,24.259C106.242,20.37 113.158,13.454 116.375,10.237C116.835,9.776 117.46,9.518 118.11,9.518C118.761,9.518 119.385,9.776 119.845,10.237C122.896,13.287 129.23,19.622 132.744,23.135C133.16,23.551 133.284,24.177 133.059,24.72C132.834,25.264 132.304,25.618 131.716,25.618C128.575,25.618 124.463,25.618 124.463,25.618C124.463,25.618 124.463,68.393 124.463,80.671C124.463,82.471 123.004,83.929 121.205,83.929C119.425,83.929 117.238,83.929 115.514,83.929Z" style="fill:white;stroke:rgb(239,239,239);stroke-width:1px;"/>
</svg>
