<?xml version="1.0" encoding="UTF-8" standalone="no"?>
<!DOCTYPE svg PUBLIC "-//W3C//DTD SVG 1.1//EN" "http://www.w3.org/Graphics/SVG/1.1/DTD/svg11.dtd">
<svg width="100%" height="100%" viewBox="0 0 237 237" version="1.1" xmlns="http://www.w3.org/2000/svg" xmlns:xlink="http://www.w3.org/1999/xlink" xml:space="preserve" style="fill-rule:evenodd;clip-rule:evenodd;stroke-linecap:round;stroke-linejoin:round;stroke-miterlimit:1.5;">
    <path d="M92.164,72.723C92.164,72.723 84.495,109.529 81.776,122.578C81.149,125.589 80.688,128.633 80.396,131.695C79.591,140.136 77.883,158.048 77.043,166.848C76.724,170.195 75.585,173.41 73.727,176.211C66.366,187.307 47.189,216.21 47.189,216.21C47.189,216.21 44.642,227.379 51.047,229.298C57.451,231.218 60.9,229.351 63.564,225.843C65.75,222.965 85.948,193.818 93.131,183.444C94.793,181.052 96.011,178.379 96.727,175.555C98.526,168.457 102.109,154.32 103.759,147.807C103.932,147.126 104.464,146.594 105.146,146.422C105.827,146.25 106.548,146.465 107.024,146.983C110.444,150.706 116.765,157.588 120.862,162.049C123.373,164.782 124.83,168.319 124.974,172.028C125.525,186.285 126.91,222.139 126.91,222.139C126.91,222.139 127.334,230.244 136.046,229.379C144.759,228.514 144.389,220.55 144.876,217.076C145.259,214.34 145.492,179.936 145.573,165.434C145.626,161.345 144.326,157.354 141.874,154.082C137.672,148.464 130.906,139.434 126.985,134.2C125.022,131.579 124.256,128.25 124.878,125.035C126.396,117.183 129.302,102.154 130.784,94.488C130.976,93.496 131.677,92.68 132.629,92.341C133.581,92.002 134.64,92.192 135.416,92.84C138.932,95.778 144.131,100.121 147.283,102.754C148.944,104.141 151.267,104.418 153.207,103.461C158.915,100.644 170.862,94.749 177.168,91.638C178.08,91.188 179.156,91.225 180.035,91.736C180.913,92.247 181.477,93.165 181.536,94.179C182.908,117.647 189.1,223.607 189.1,223.607C189.1,223.607 189.536,228.586 194.274,228.239C199.012,227.892 199.527,221.573 199.527,221.573L197.378,66.104C197.378,66.104 196.438,57.978 189.214,58.78C181.991,59.582 181.424,66.72 181.424,66.72C181.424,66.72 181.281,70.691 181.211,72.663C181.187,73.323 180.778,73.908 180.167,74.159C176.276,75.75 162.148,81.53 156.764,83.733C155.474,84.26 153.997,84.016 152.945,83.101C146.659,77.634 125.244,59.007 125.244,59.007C125.244,59.007 111.649,51.776 102.906,58.145C94.163,64.515 92.164,72.723 92.164,72.723Z" style="fill:white;stroke:rgb(236,236,236);stroke-width:1px;"/>
    <path d="M59.525,58.363L48.389,118.11C48.389,118.11 45.954,129.557 56.693,132.762C67.433,135.966 73.695,128.66 75.128,124.167C76.561,119.675 87.267,62.941 87.267,62.941C87.267,62.941 87.521,50.738 75.767,48.746C64.013,46.754 59.384,55.605 59.525,58.363Z" style="fill:white;stroke:rgb(236,236,236);stroke-width:1px;"/>
    <g transform="matrix(1,0,0,1,0.264014,2.38101)">
        <ellipse cx="128.636" cy="28.412" rx="23.543" ry="23.728" style="fill:white;stroke:rgb(236,236,236);stroke-width:1px;"/>
    </g>
</svg>
