<?xml version="1.0" encoding="UTF-8" standalone="no"?>
<!DOCTYPE svg PUBLIC "-//W3C//DTD SVG 1.1//EN" "http://www.w3.org/Graphics/SVG/1.1/DTD/svg11.dtd">
<svg width="100%" height="100%" viewBox="0 0 237 237" version="1.1" xmlns="http://www.w3.org/2000/svg" xmlns:xlink="http://www.w3.org/1999/xlink" xml:space="preserve" style="fill-rule:evenodd;clip-rule:evenodd;stroke-linecap:round;stroke-linejoin:round;stroke-miterlimit:1.5;">
    <path d="M172.893,28.844C172.893,28.844 193.034,28.459 195.363,40.525C195.363,40.525 202.517,43.602 207.114,45.579C207.798,45.874 208.25,46.538 208.272,47.282C208.294,48.026 207.882,48.716 207.217,49.05C203.048,51.143 196.823,54.268 196.823,54.268C196.823,54.268 195.801,75.015 201.211,85.729C201.515,86.194 201.506,86.798 201.188,87.254C200.87,87.71 200.307,87.927 199.765,87.802C197.347,87.268 194.468,86.606 194.468,86.606C194.468,86.606 201.066,161.61 131.546,172.578L131.546,191.018L182.491,191.018C182.491,191.018 182.491,186.844 182.491,183.056C182.491,181.81 183.155,180.659 184.232,180.035C185.309,179.41 186.638,179.406 187.719,180.025C195.715,184.604 210.792,193.236 217.782,197.238C218.559,197.683 219.042,198.507 219.052,199.402C219.061,200.298 218.595,201.131 217.828,201.592C211.08,205.645 196.732,214.264 188.976,218.922C187.909,219.563 186.579,219.58 185.495,218.967C184.411,218.354 183.741,217.205 183.741,215.959C183.741,211.875 183.741,207.245 183.741,207.245L132.346,207.245C132.346,207.245 132.346,218.829 132.346,224.928C132.346,225.898 131.961,226.828 131.275,227.514C130.589,228.2 129.658,228.585 128.688,228.585C126.388,228.585 123.451,228.585 121.255,228.585C119.518,228.585 118.11,227.177 118.11,225.44C118.11,219.634 118.11,207.82 118.11,207.82L68.912,207.82C68.912,207.82 63.707,216.98 57.376,217.441C52.472,217.799 30.488,217.602 20.833,217.496C19.943,217.489 19.13,216.988 18.725,216.195C18.32,215.402 18.39,214.45 18.907,213.725C22.668,208.444 29.11,199.4 29.11,199.4C29.11,199.4 23.647,191.431 19.837,185.872C19.131,184.843 19.054,183.508 19.635,182.404C20.217,181.3 21.362,180.609 22.61,180.609C34.694,180.609 59.719,180.609 59.719,180.609C59.719,180.609 64.977,183.439 68.24,189.987L118.11,189.987L118.11,174.834C118.11,174.834 97.842,177.585 81.398,169.838C80.937,169.591 80.727,169.043 80.905,168.551C81.083,168.059 81.595,167.773 82.108,167.879C93.617,169.601 118.828,170.616 142.884,153.078C175.422,129.355 166.308,106.104 166.308,106.104C166.308,106.104 153.443,153.085 95.161,158.483C49.49,162.714 37.484,145.007 34.427,137.146C34.131,136.291 34.241,135.347 34.726,134.582C35.211,133.818 36.017,133.316 36.917,133.218C39.532,132.894 43.184,132.499 46.28,132.164C46.655,132.122 46.944,131.814 46.963,131.437C46.982,131.06 46.725,130.725 46.356,130.646C39.455,129.149 28.738,125.092 26.066,114.203C25.658,112.536 26.058,110.774 27.146,109.446C28.234,108.119 29.882,107.38 31.597,107.452C33.294,107.523 35.105,107.599 36.689,107.666C37.277,107.689 37.812,107.33 38.012,106.777C38.211,106.223 38.029,105.605 37.562,105.248C31.531,100.588 20.203,90.457 22.074,81.347C22.282,80.3 23.023,79.439 24.027,79.077C25.031,78.715 26.151,78.906 26.979,79.579C36.49,86.949 67.981,107.586 107.316,93.577L122.441,87.536C122.441,87.536 146.5,69.082 160.008,37.452C160.008,37.452 152.504,36.106 148.609,29.328C144.715,22.55 148.846,19.79 153.701,19.207C158.556,18.625 159.561,15.998 161.689,11.086C163.818,6.174 167.686,4.383 173.836,8.915C179.986,13.446 179.077,12.337 184.27,8.898C189.463,5.459 197.611,6.407 196.707,16.289C195.803,26.172 194.684,28.196 186.326,25.885C177.968,23.575 172.893,28.844 172.893,28.844Z" style="fill:white;stroke:rgb(239,239,239);stroke-width:1px;"/>
</svg>
