<?xml version="1.0" encoding="UTF-8" standalone="no"?>
<!DOCTYPE svg PUBLIC "-//W3C//DTD SVG 1.1//EN" "http://www.w3.org/Graphics/SVG/1.1/DTD/svg11.dtd">
<svg width="100%" height="100%" viewBox="0 0 237 237" version="1.1" xmlns="http://www.w3.org/2000/svg" xmlns:xlink="http://www.w3.org/1999/xlink" xml:space="preserve" style="fill-rule:evenodd;clip-rule:evenodd;stroke-linecap:round;stroke-linejoin:round;stroke-miterlimit:1.5;">
    <path d="M118.18,156.057C118.344,156.064 118.508,156.068 118.673,156.068C124.681,156.068 129.558,151.191 129.558,145.184C129.558,139.177 124.681,134.299 118.673,134.299C118.508,134.299 118.344,134.303 118.18,134.31L118.11,134.314C117.924,134.304 117.736,134.299 117.547,134.299C111.54,134.299 106.663,139.177 106.663,145.184C106.663,151.191 111.54,156.068 117.547,156.068C117.736,156.068 117.924,156.063 118.11,156.054L118.18,156.057ZM53.941,110.875C73.033,110.875 88.533,126.375 88.533,145.467C88.533,164.558 73.033,180.058 53.941,180.058C34.849,180.058 19.349,164.558 19.349,145.467C19.349,126.375 34.849,110.875 53.941,110.875ZM182.279,110.875C163.188,110.875 147.688,126.375 147.688,145.467C147.688,164.558 163.188,180.058 182.279,180.058C201.371,180.058 216.871,164.558 216.871,145.467C216.871,126.375 201.371,110.875 182.279,110.875ZM50.08,118.428C53.951,117.963 54.324,119.72 54.352,120.225L54.352,121.556C54.352,122.651 53.506,123.56 52.413,123.639C40.567,124.615 31.248,134.554 31.248,146.652C31.248,150.073 31.993,153.322 33.33,156.244C33.991,157.634 33.494,159.299 32.179,160.099C32.192,160.122 32.192,160.122 32.192,160.122C31.594,160.485 30.871,160.583 30.199,160.39C29.526,160.198 28.965,159.733 28.649,159.108C26.836,155.338 25.81,151.114 25.81,146.652C25.81,132.351 36.351,120.493 50.08,118.428ZM186.14,118.428C182.27,117.963 181.897,119.72 181.868,120.225L181.868,121.556C181.869,122.651 182.715,123.56 183.807,123.639C195.654,124.615 204.973,134.554 204.973,146.652C204.973,150.073 204.228,153.322 202.891,156.244C202.229,157.634 202.726,159.299 204.042,160.099C204.028,160.122 204.029,160.122 204.029,160.122C204.627,160.485 205.349,160.583 206.022,160.39C206.694,160.198 207.256,159.733 207.571,159.108C209.384,155.338 210.41,151.114 210.41,146.652C210.41,132.351 199.869,120.493 186.14,118.428ZM117.992,166.053C107.955,166.411 101.851,159.819 101.851,159.819C101.822,159.96 101.792,160.101 101.762,160.242L100.91,159.26C94.855,179.384 76.17,194.06 54.083,194.06C27.1,194.06 5.192,172.153 5.192,145.169C5.192,136.291 7.563,127.963 11.706,120.784L11.524,120.341C19.093,106.909 32.86,82.499 40.931,68.323C52.487,48.027 56.986,50.289 56.986,50.289C59.842,43.727 67.179,31.259 84.414,32.193C101.648,33.128 95.803,56.547 95.803,56.547C104.434,58.196 103.36,81.373 103.36,81.373C107.819,77.46 118.11,76.916 118.11,76.916L118.14,76.918C118.749,76.954 128.541,77.582 132.861,81.373C132.861,81.373 131.786,58.196 140.418,56.547C140.418,56.547 134.572,33.128 151.807,32.193C169.041,31.259 176.378,43.727 179.234,50.289C179.234,50.289 183.734,48.027 195.29,68.323C203.361,82.499 217.128,106.909 224.696,120.341L224.514,120.784C228.657,127.963 231.028,136.291 231.028,145.169C231.028,172.153 209.121,194.06 182.137,194.06C160.051,194.06 141.365,179.384 135.31,159.26L134.458,160.242C134.428,160.101 134.399,159.96 134.37,159.819C134.37,159.819 128.218,166.463 118.11,166.048L117.992,166.053Z" style="fill:white;stroke:rgb(235,235,235);stroke-width:1px;"/>
</svg>
