<?xml version="1.0" encoding="UTF-8" standalone="no"?>
<!DOCTYPE svg PUBLIC "-//W3C//DTD SVG 1.1//EN" "http://www.w3.org/Graphics/SVG/1.1/DTD/svg11.dtd">
<svg width="100%" height="100%" viewBox="0 0 237 237" version="1.1" xmlns="http://www.w3.org/2000/svg" xmlns:xlink="http://www.w3.org/1999/xlink" xml:space="preserve" style="fill-rule:evenodd;clip-rule:evenodd;stroke-linecap:round;stroke-linejoin:round;stroke-miterlimit:1.5;">
    <g transform="matrix(0.453159,0,0,0.453159,2.11312,2.0918)">
        <path d="M219.142,73.952L219.142,47.298C219.142,36.345 228.035,27.451 238.989,27.451L271.599,27.451C282.553,27.451 291.446,36.345 291.446,47.298L291.446,73.531C299.56,75.09 307.486,77.179 315.187,79.761L328.427,56.829C333.904,47.342 346.052,44.087 355.539,49.563L383.78,65.868C393.266,71.345 396.522,83.493 391.045,92.98L377.911,115.729C384.103,121.124 389.933,126.923 395.36,133.085L418.38,119.81C427.869,114.338 440.015,117.599 445.488,127.088L461.779,155.337C467.251,164.827 463.99,176.973 454.501,182.445L431.663,195.615C434.288,203.304 436.42,211.221 438.022,219.327L464.739,219.354C475.693,219.365 484.577,228.267 484.566,239.221L484.533,271.831C484.522,282.785 475.619,291.669 464.666,291.658L437.987,291.631C436.387,299.679 434.266,307.54 431.658,315.178L455.059,328.736C464.537,334.227 467.773,346.38 462.282,355.859L445.934,384.075C440.442,393.553 428.289,396.789 418.811,391.298L395.349,377.704C390.023,383.752 384.308,389.45 378.243,394.758L391.938,418.591C397.395,428.088 394.116,440.23 384.618,445.688L356.344,461.935C346.846,467.392 334.704,464.112 329.247,454.614L315.606,430.876C308.073,433.421 300.324,435.495 292.394,437.062L292.322,464.796C292.294,475.749 283.378,484.62 272.424,484.592L239.815,484.508C228.86,484.48 219.99,475.564 220.018,464.61L220.089,437.017C212.193,435.447 204.477,433.374 196.976,430.833L182.955,454.946C177.449,464.415 165.291,467.633 155.821,462.127L127.631,445.735C118.161,440.228 114.944,428.07 120.45,418.601L134.364,394.671C128.371,389.416 122.718,383.781 117.445,377.803L93.198,391.686C83.692,397.128 71.556,393.83 66.113,384.323L49.91,356.024C44.467,346.518 47.766,334.381 57.272,328.939L81.092,315.3C78.517,307.777 76.414,300.036 74.817,292.112L47.148,291.998C36.195,291.953 27.338,283.024 27.383,272.069L27.517,239.46C27.563,228.506 36.492,219.65 47.446,219.695L74.591,219.807C76.149,211.816 78.221,204.009 80.772,196.421L57.168,182.647C47.707,177.126 44.508,164.963 50.029,155.501L66.465,127.337C71.986,117.876 84.149,114.677 93.61,120.198L116.789,133.724C122.13,127.603 127.867,121.836 133.96,116.463L120.567,92.988C115.139,83.474 118.457,71.342 127.971,65.914L156.296,49.755C165.811,44.327 177.942,47.645 183.37,57.159L196.468,80.118C203.828,77.6 211.397,75.534 219.142,73.952ZM255.974,143.573C318.036,143.573 368.423,193.96 368.423,256.021C368.423,318.083 318.036,368.47 255.974,368.47C193.912,368.47 143.526,318.083 143.526,256.021C143.526,193.96 193.912,143.573 255.974,143.573ZM256,207.193C282.949,207.193 304.829,229.072 304.829,256.021C304.829,282.971 282.949,304.85 256,304.85C229.051,304.85 207.171,282.971 207.171,256.021C207.171,229.072 229.051,207.193 256,207.193Z" style="fill:white;stroke:rgb(236,236,236);stroke-width:2.21px;"/>
    </g>
</svg>
