<?xml version="1.0" encoding="UTF-8" standalone="no"?>
<!DOCTYPE svg PUBLIC "-//W3C//DTD SVG 1.1//EN" "http://www.w3.org/Graphics/SVG/1.1/DTD/svg11.dtd">
<svg width="100%" height="100%" viewBox="0 0 237 237" version="1.1" xmlns="http://www.w3.org/2000/svg" xmlns:xlink="http://www.w3.org/1999/xlink" xml:space="preserve" style="fill-rule:evenodd;clip-rule:evenodd;stroke-linecap:round;stroke-linejoin:round;stroke-miterlimit:1.5;">
    <path d="M174.338,27.641C174.338,27.641 161.575,33.692 130.056,41.636C98.536,49.58 88.955,49.444 81.668,64.249C74.38,79.055 59.396,100.496 63.147,108.388C66.897,116.279 72.731,126.715 72.731,126.715C72.731,126.715 81.529,114.301 97.007,107.357L94.327,102.369C94.327,102.369 106.046,92.361 106.226,85.549C106.226,85.549 119.898,84.77 126.615,82.521C126.615,82.521 131.094,88.201 134.967,90.203C134.967,90.203 134.169,102.241 109.281,110.041C109.281,110.041 78.697,120.045 76.233,140.173C73.768,160.301 95.698,156.193 105.412,153.137C115.126,150.08 131.338,142.04 137.176,138.074C143.014,134.107 148.377,132.683 158.658,130.469C168.938,128.256 190.122,121.45 197.068,107.862C204.015,94.274 212.688,82.729 218.735,80.166C224.782,77.603 235.177,73.213 225.071,49.011C214.964,24.81 203.908,13.595 191.218,20.185C178.528,26.776 174.338,27.641 174.338,27.641Z" style="fill:white;stroke:rgb(233,233,233);stroke-width:1px;"/>
    <path d="M136.522,146.975L145.928,141.585L163.503,137.451C163.503,137.451 166.325,141.384 166.711,155.693C167.096,170.001 166.711,197.631 166.711,197.631C166.711,197.631 168.052,218.465 145.928,219.245L25.624,219.245C25.624,219.245 7.072,214.518 6.769,201.241C6.467,187.965 6.769,146.823 6.769,146.823C6.769,146.823 8.588,129.056 27.385,128.988C46.183,128.919 71.208,128.988 71.208,128.988C71.208,128.988 66.772,137.369 67.949,142.148L38.278,142.148C38.278,142.148 39.134,155.576 21.391,160.481L21.391,187.484C21.391,187.484 37.747,190.771 38.297,205.398L135.863,205.398C135.863,205.398 136.507,189.487 153.457,187.67L153.457,160.455C153.457,160.455 140.854,159.574 136.522,146.975Z" style="fill:white;stroke:rgb(233,233,233);stroke-width:1px;"/>
    <path d="M71.679,155.064C71.83,155.274 71.986,155.483 72.148,155.693C72.148,155.693 79.314,169.301 106.579,160.022C109.379,163.975 111.025,168.803 111.025,174.012C111.025,187.39 100.165,198.252 86.789,198.252C73.413,198.252 62.554,187.39 62.554,174.012C62.554,166.347 66.118,159.508 71.679,155.064Z" style="fill:white;stroke:rgb(233,233,233);stroke-width:1px;"/>
</svg>
